<svg width="93" height="24" viewBox="0 0 93 24" fill="none" xmlns="http://www.w3.org/2000/svg">
<mask id="mask0_20_1302" style="mask-type:alpha" maskUnits="userSpaceOnUse" x="0" y="0" width="93" height="24">
<rect width="93" height="24" fill="#C4C4C4"/>
</mask>
<g mask="url(#mask0_20_1302)">
<path d="M8.47472 12L7.02306 13.4516L5.57141 12L7.02306 10.5484L8.47472 12ZM12 8.47463L14.4885 10.9631L15.9401 9.5115L12 5.57141L8.05997 9.5115L9.51152 10.9631L12 8.47463ZM16.977 10.5484L15.5254 12L16.977 13.4516L18.4286 12L16.977 10.5484ZM12 15.5253L9.51152 13.0369L8.05997 14.4885L12 18.4286L15.9401 14.4885L14.4885 13.0369L12 15.5253ZM12 13.4516L13.4516 12L12 10.5484L10.5484 12L12 13.4516Z" fill="#8A94A6"/>
<path d="M37.5062 9.9563V9.93235C37.5062 8.8104 36.9067 8.24957 35.9354 7.87955C36.5348 7.54537 37.0386 7.02024 37.0386 6.07734V6.05355C37.0386 4.74063 35.9834 3.89322 34.2685 3.89322H30.3713V12.2478H34.3645C36.2591 12.2478 37.5062 11.484 37.5062 9.9563ZM35.2038 6.38772C35.2038 7.00834 34.6881 7.27083 33.8728 7.27083H32.1701V5.50447H33.9927C34.7722 5.50447 35.2038 5.81485 35.2038 6.36393V6.38772ZM35.6716 9.72949C35.6716 10.3501 35.1798 10.6365 34.3645 10.6365H32.1701V8.79865H34.3045C35.2518 8.79865 35.6716 9.14472 35.6716 9.70555V9.72949ZM41.3788 12.2478V3.89322H39.5321V12.2478H41.3788ZM51.3055 12.2478V3.89322H49.4829V9.03734L45.5496 3.89322H43.8469V12.2478H45.6696V6.93666L49.7348 12.2478H51.3055ZM61.5349 12.2478L57.9374 3.83358H56.2347L52.6372 12.2478H54.5199L55.2874 10.3741H58.8368L59.6042 12.2478H61.5349ZM58.1772 8.75076H55.9469L57.0621 6.0415L58.1772 8.75076ZM70.3373 12.2478V3.89322H68.5145V9.03734L64.5814 3.89322H62.8785V12.2478H64.7012V6.93666L68.7664 12.2478H70.3373ZM79.871 10.8992L78.6959 9.7176C78.0364 10.3144 77.4488 10.6963 76.4895 10.6963C75.0504 10.6963 74.0551 9.50284 74.0551 8.07051V8.04671C74.0551 6.61437 75.0745 5.44483 76.4895 5.44483C77.3289 5.44483 77.9884 5.8028 78.636 6.38772L79.8111 5.03897C79.0317 4.27513 78.0842 3.75 76.5015 3.75C73.9232 3.75 72.1246 5.69542 72.1246 8.07051V8.0943C72.1246 10.4933 73.9594 12.391 76.4295 12.391C78.0483 12.391 79.0076 11.8183 79.871 10.8992ZM87.75 12.2478V10.6128H83.1933V8.85828H87.1505V7.22309H83.1933V5.52841H87.69V3.89322H81.3587V12.2478H87.75Z" fill="#8A94A6"/>
<path d="M31.2057 16.2827C31.2057 15.9091 31.5411 15.6151 32.116 15.6151C32.6271 15.6151 33.1301 15.8138 33.6332 16.1874L34.1602 15.4482C33.5933 14.9952 32.9465 14.7488 32.132 14.7488C31.0221 14.7488 30.2236 15.4005 30.2236 16.3701C30.2236 17.4033 30.8943 17.753 32.0841 18.0391C33.1221 18.2775 33.3457 18.4921 33.3457 18.8974C33.3457 19.3266 32.9624 19.6047 32.3556 19.6047C31.6609 19.6047 31.1259 19.3425 30.5909 18.8815L30 19.5809C30.6707 20.177 31.4772 20.471 32.3316 20.471C33.5054 20.471 34.3279 19.8511 34.3279 18.802C34.3279 17.8722 33.713 17.4509 32.5313 17.1649C31.4613 16.9106 31.2057 16.7198 31.2057 16.2827Z" fill="#8A94A6"/>
<path d="M39.9944 16.4019V20.3915H40.9766V14.8282H39.9306L38.2297 17.4588L36.529 14.8282H35.4829V20.3915H36.4491V16.4176L38.1978 19.0244H38.2297L39.9944 16.4019Z" fill="#8A94A6"/>
<path d="M45.3058 14.7885H44.3956L41.9362 20.3915H42.9423L43.5172 19.0484H46.1602L46.7273 20.3915H47.7653L45.3058 14.7885ZM45.801 18.1821H43.8765L44.8347 15.9568L45.801 18.1821Z" fill="#8A94A6"/>
<path d="M53.4668 20.3915L51.9576 18.2854C52.7401 18.0708 53.2911 17.5144 53.2911 16.5925C53.2911 15.5037 52.5006 14.8282 51.215 14.8282H48.7236V20.3915H49.7058V18.4523H50.9356L52.3089 20.3915H53.4668ZM52.2931 16.6481C52.2931 17.2204 51.8458 17.586 51.1431 17.586H49.7058V15.7183H51.1352C51.8618 15.7183 52.2931 16.0362 52.2931 16.6481Z" fill="#8A94A6"/>
<path d="M56.8344 15.7343H58.607V14.8282H54.0715V15.7343H55.8441V20.3915H56.8344V15.7343Z" fill="#8A94A6"/>
<path d="M66.9054 19.5014L66.2745 18.8656C65.7954 19.3106 65.3563 19.5888 64.6695 19.5888C63.5995 19.5888 62.825 18.6986 62.825 17.6019C62.825 16.5051 63.5995 15.6309 64.6695 15.6309C65.3083 15.6309 65.7875 15.909 66.2346 16.3223L66.8655 15.5991C66.3305 15.0905 65.7076 14.7328 64.6776 14.7328C62.9848 14.7328 61.7949 16.0283 61.7949 17.6178C61.7949 19.2231 63.0087 20.4868 64.6376 20.4868C65.6837 20.4868 66.3225 20.1053 66.9054 19.5014Z" fill="#8A94A6"/>
<path d="M71.5868 18.0469V20.3915H72.569V14.8282H71.5868V17.1409H68.9199V14.8282H67.9377V20.3915H68.9199V18.0469H71.5868Z" fill="#8A94A6"/>
<path d="M76.8951 14.7885H75.9848L73.5253 20.3915H74.5315L75.1063 19.0484H77.7495L78.3164 20.3915H79.3544L76.8951 14.7885ZM77.3901 18.1821H75.4657L76.4239 15.9568L77.3901 18.1821Z" fill="#8A94A6"/>
<path d="M80.3689 14.8282V20.3915H81.3511V14.8282H80.3689Z" fill="#8A94A6"/>
<path d="M86.752 18.6748L83.7576 14.8282H82.8473V20.3915H83.8135V16.4335L86.8958 20.3915H87.7182V14.8282H86.752V18.6748Z" fill="#8A94A6"/>
</g>
</svg>
