<svg width="18" height="14" viewBox="0 0 18 14" fill="none" xmlns="http://www.w3.org/2000/svg">
<g clip-path="url(#clip0_6_3298)">
<mask id="mask0_6_3298" style="mask-type:alpha" maskUnits="userSpaceOnUse" x="-16" y="-17" width="52" height="52">
<path d="M18.8101 -0.490234H-0.189941V13.5098H18.8101V-0.490234Z" fill="white"/>
<rect x="-16" y="-17" width="52" height="52" fill="#C4C4C4"/>
</mask>
<g mask="url(#mask0_6_3298)">
<path d="M5.99999 10.6997L5.71714 10.9826C5.87335 11.1388 6.12662 11.1388 6.28283 10.9826L5.99999 10.6997ZM6.28283 10.4169L2.78283 6.91685L2.21714 7.48254L5.71714 10.9826L6.28283 10.4169ZM0.817141 8.88253L4.65648 12.7219L5.22217 12.1562L1.38283 8.31684L0.817141 8.88253ZM7.34349 12.7219L17.5829 2.48254L17.0172 1.91685L6.77781 12.1562L7.34349 12.7219ZM15.6172 0.516848L5.71714 10.4169L6.28283 10.9826L16.1829 1.08254L15.6172 0.516848ZM17.5829 0.516849C17.04 -0.025961 16.16 -0.0259612 15.6172 0.516848L16.1829 1.08254C16.4132 0.852144 16.7868 0.852144 17.0172 1.08254L17.5829 0.516849ZM17.5829 2.48254C18.1257 1.93973 18.1257 1.05966 17.5829 0.516849L17.0172 1.08254C17.2476 1.31293 17.2476 1.68646 17.0172 1.91685L17.5829 2.48254ZM4.65648 12.7219C5.39848 13.4639 6.60149 13.4639 7.34349 12.7219L6.77781 12.1562C6.34823 12.5858 5.65175 12.5858 5.22217 12.1562L4.65648 12.7219ZM0.817142 6.91685C0.274332 7.45966 0.274332 8.33972 0.817141 8.88253L1.38283 8.31684C1.15244 8.08645 1.15244 7.71293 1.38283 7.48254L0.817142 6.91685ZM2.78283 6.91685C2.24002 6.37404 1.35995 6.37404 0.817142 6.91685L1.38283 7.48254C1.61322 7.25215 1.98676 7.25215 2.21714 7.48254L2.78283 6.91685Z" fill="#A6FFAF"/>
<path d="M6.28283 10.9826C6.12662 11.1388 5.87335 11.1388 5.71714 10.9826L2.21714 7.48254C1.98676 7.25215 1.61322 7.25215 1.38283 7.48254C1.15244 7.71293 1.15244 8.08645 1.38283 8.31684L5.22217 12.1562C5.65175 12.5858 6.34823 12.5858 6.77781 12.1562L17.0172 1.91685C17.2476 1.68646 17.2476 1.31293 17.0172 1.08254C16.7868 0.852144 16.4132 0.852144 16.1829 1.08254L6.28283 10.9826Z" fill="#A6FFAF"/>
</g>
</g>
<defs>
<clipPath id="clip0_6_3298">
<rect width="18" height="14" fill="white"/>
</clipPath>
</defs>
</svg>
