<svg width="12" height="7" viewBox="0 0 12 7" fill="none" xmlns="http://www.w3.org/2000/svg">
<path d="M6.76873 3.34121C6.76873 5.18645 5.25348 6.68231 3.38442 6.68231C1.51537 6.68231 0 5.18645 0 3.34121C0 1.49597 1.51525 0 3.38442 0C5.25359 0 6.76873 1.49597 6.76873 3.34121Z" fill="white"/>
<path d="M10.4816 3.34121C10.4816 5.07822 9.72397 6.48625 8.78938 6.48625C7.8548 6.48625 7.09717 5.07811 7.09717 3.34121C7.09717 1.60431 7.8548 0.196167 8.78938 0.196167C9.72397 0.196054 10.4816 1.6042 10.4816 3.34121Z" fill="white"/>
<path d="M12.0001 3.34118C12.0001 4.89747 11.7337 6.15905 11.405 6.15905C11.0762 6.15905 10.8098 4.89747 10.8098 3.34118C10.8098 1.7849 11.0762 0.523315 11.405 0.523315C11.7337 0.523315 12.0001 1.7849 12.0001 3.34118Z" fill="white"/>
</svg>
