<svg width="93" height="24" viewBox="0 0 93 24" fill="none" xmlns="http://www.w3.org/2000/svg">
<mask id="mask0_1_2477" style="mask-type:alpha" maskUnits="userSpaceOnUse" x="0" y="0" width="93" height="24">
<rect width="93" height="24" fill="#C4C4C4"/>
</mask>
<g mask="url(#mask0_1_2477)">
<path d="M10.4203 8.8821H12.2379L12.8635 6H14.9178L14.3006 8.8821H16.4141L17.0312 6H19.094L18.4684 8.8821H20.4128L19.9732 10.917H18.0373L17.5892 13.048H19.4575L19.0264 15.083H17.1581L16.5325 18H14.4697L15.0953 15.083H12.9818L12.3562 18H10.3019L10.919 15.083H9L9.46497 13.048H11.3502L11.8067 10.917H9.9553L10.4203 8.8821ZM13.413 13.048H15.5264L15.9745 10.917H13.861L13.413 13.048Z" fill="#8A94A6"/>
<path d="M27.1768 12.0751H33.3515V7.98079H35.1099V18H33.3515V13.9057H27.1768V18H25.4183V7.98079H27.1768V12.0751Z" fill="#8A94A6"/>
<path d="M44.4837 15.4987C44.4837 15.7502 44.4408 16.0227 44.3552 16.3162C44.2695 16.605 44.1297 16.8751 43.9359 17.1266C43.7465 17.3735 43.4963 17.5808 43.1852 17.7485C42.8786 17.9162 42.5043 18 42.0625 18H38.8905C38.6471 18 38.3833 17.9558 38.0993 17.8673C37.8197 17.7788 37.5582 17.6367 37.3147 17.4411C37.0758 17.2408 36.8751 16.9822 36.7128 16.6655C36.5505 16.3441 36.4693 15.9552 36.4693 15.4987C36.4693 15.2472 36.5122 14.9747 36.5978 14.6812C36.6835 14.3878 36.821 14.1176 37.0104 13.8707C37.2043 13.6192 37.4545 13.4096 37.7611 13.2419C38.0722 13.0742 38.4487 12.9904 38.8905 12.9904H42.0625V14.7231H38.8905C38.6516 14.7231 38.4667 14.8 38.336 14.9537C38.2052 15.1028 38.1398 15.2891 38.1398 15.5127C38.1398 15.7502 38.2142 15.9365 38.363 16.0716C38.5163 16.202 38.6967 16.2673 38.9041 16.2673H42.0625C42.3014 16.2673 42.4863 16.1927 42.617 16.0437C42.7478 15.8946 42.8132 15.7083 42.8132 15.4847V12.9485C42.8132 12.7109 42.741 12.5223 42.5968 12.3825C42.457 12.2428 42.2789 12.1729 42.0625 12.1729H38.2007V10.4472H42.0625C42.3059 10.4472 42.5674 10.4914 42.847 10.5799C43.131 10.6684 43.3926 10.8128 43.6315 11.0131C43.875 11.2087 44.0779 11.4673 44.2402 11.7886C44.4025 12.1054 44.4837 12.492 44.4837 12.9485V15.4987Z" fill="#8A94A6"/>
<path d="M53.0526 15.4498C53.0526 15.7619 53.0143 16.0437 52.9376 16.2952C52.861 16.5421 52.7595 16.761 52.6333 16.952C52.507 17.1383 52.3605 17.299 52.1937 17.4341C52.0269 17.5645 51.851 17.6716 51.6662 17.7555C51.4858 17.8393 51.3009 17.9022 51.1116 17.9441C50.9267 17.9814 50.7509 18 50.584 18H45.8228V16.1834H50.5705C50.8095 16.1834 50.9898 16.1205 51.1116 15.9948C51.2333 15.869 51.2942 15.6873 51.2942 15.4498C51.2716 14.9654 51.0349 14.7231 50.584 14.7231H47.8585C47.4707 14.7231 47.1416 14.6533 46.8711 14.5135C46.6005 14.3738 46.3796 14.1991 46.2083 13.9895C46.0415 13.7799 45.9197 13.554 45.8431 13.3118C45.7709 13.0696 45.7349 12.8437 45.7349 12.6341C45.7349 12.2288 45.8047 11.8888 45.9445 11.614C46.0843 11.3345 46.2601 11.1086 46.472 10.9362C46.684 10.7639 46.9139 10.6405 47.1619 10.5659C47.4099 10.4868 47.6421 10.4472 47.8585 10.4472H52.1802V12.2638H47.872C47.7818 12.2638 47.7097 12.2754 47.6556 12.2987C47.606 12.3173 47.5677 12.3453 47.5406 12.3825C47.5181 12.4151 47.5046 12.4524 47.5 12.4943C47.4955 12.5316 47.4933 12.5689 47.4933 12.6061C47.4978 12.6806 47.5113 12.7389 47.5339 12.7808C47.5564 12.8227 47.5835 12.853 47.615 12.8716C47.6511 12.8903 47.6894 12.9019 47.73 12.9066C47.7751 12.9066 47.8179 12.9066 47.8585 12.9066H50.584C51.0349 12.9066 51.4182 12.9904 51.7338 13.1581C52.0494 13.3258 52.3041 13.5377 52.498 13.7939C52.6919 14.0454 52.8317 14.3202 52.9173 14.6183C53.0075 14.9165 53.0526 15.1936 53.0526 15.4498Z" fill="#8A94A6"/>
<path d="M62.4196 18H60.6612V12.9904C60.6612 12.7528 60.6025 12.5735 60.4853 12.4524C60.3681 12.3266 60.1922 12.2638 59.9578 12.2638H56.7859V10.4472H59.9578C60.1246 10.4472 60.3004 10.4681 60.4853 10.51C60.6702 10.5473 60.8528 10.6079 61.0331 10.6917C61.218 10.7755 61.3938 10.885 61.5607 11.0201C61.7275 11.1505 61.874 11.3112 62.0003 11.5022C62.1265 11.6885 62.2279 11.9051 62.3046 12.152C62.3812 12.3988 62.4196 12.6783 62.4196 12.9904V18ZM56.0757 18H54.3173V7.25415H56.0757V18Z" fill="#8A94A6"/>
<path d="M72.1991 13.9057H66.6465V12.0751H72.1991V13.9057ZM72.9904 18H66.6465C66.4031 18 66.1371 17.9558 65.8485 17.8673C65.5599 17.7788 65.2917 17.6344 65.0437 17.4341C64.8002 17.2291 64.5951 16.9659 64.4282 16.6445C64.2659 16.3185 64.1848 15.9202 64.1848 15.4498V8.89607C64.1848 8.77031 64.2073 8.65153 64.2524 8.53974C64.2975 8.42795 64.3583 8.33013 64.435 8.24629C64.5162 8.16245 64.6108 8.09724 64.719 8.05066C64.8273 8.00408 64.9445 7.98079 65.0707 7.98079H72.9904V9.79738H65.9432V15.4498C65.9432 15.6873 66.004 15.869 66.1258 15.9948C66.2475 16.1205 66.4256 16.1834 66.6601 16.1834H72.9904V18Z" fill="#8A94A6"/>
<path d="M82.8511 10.4472L79.6927 14.0105L83.2501 18H80.8289L78.4888 15.3659L76.1488 18H73.7208L77.2715 13.9965L74.1266 10.4472H76.5343L78.4753 12.6341L80.4299 10.4472H82.8511Z" fill="#8A94A6"/>
</g>
</svg>
