<svg width="93" height="24" viewBox="0 0 93 24" fill="none" xmlns="http://www.w3.org/2000/svg">
<mask id="mask0_20_1264" style="mask-type:alpha" maskUnits="userSpaceOnUse" x="0" y="0" width="93" height="24">
<rect width="93" height="24" fill="#C4C4C4"/>
</mask>
<g mask="url(#mask0_20_1264)">
<path d="M29.2906 11.0035V9.60092H32.5667C33.5653 9.60092 34.1599 8.96212 34.1599 8.0271C34.1599 7.06924 33.5653 6.46469 32.5667 6.46469H28.2473V13.3071H26.8336V5.01648H32.5667C34.4516 5.01648 35.5509 6.16813 35.5509 7.98142C35.5509 9.77187 34.4516 11.0035 32.5667 11.0035H29.2906Z" fill="#8A94A6"/>
<path d="M43.8863 13.3111L42.6633 11.2243H38.804L39.477 10.0498H41.979L40.1615 6.94783L36.459 13.3111H34.8322L39.522 5.374C39.6903 5.08903 39.9035 4.90649 40.2175 4.90649C40.5317 4.90649 40.7338 5.08903 40.902 5.374L45.6029 13.3111H43.8863Z" fill="#8A94A6"/>
<path d="M46.4625 13.3071V5.01648H47.8873V11.8589H53.3736V13.3071H46.4625Z" fill="#8A94A6"/>
<path d="M62.9099 13.3111L61.6868 11.2243H57.8275L58.5006 10.0498H61.0025L59.1851 6.94783L55.4827 13.3111H53.8557L58.5455 5.374C58.7139 5.08903 58.9272 4.90649 59.2411 4.90649C59.5553 4.90649 59.7574 5.08903 59.9257 5.374L64.6264 13.3111H62.9099Z" fill="#8A94A6"/>
<path d="M70.231 11.8589C71.7008 11.8589 72.7779 10.7071 72.7779 9.14483C72.7779 7.58242 71.7008 6.46469 70.231 6.46469H66.9214V11.8589H70.231ZM65.5077 13.3071V5.01648H70.231C72.5309 5.01648 74.2025 6.67007 74.2025 9.07631C74.2025 11.4826 72.5309 13.3071 70.231 13.3071H65.5077Z" fill="#8A94A6"/>
<path d="M76.8551 5.01648H75.4302V13.3071H76.8551V5.01648Z" fill="#8A94A6"/>
<path d="M79.6846 7.23309V13.3002H78.327V5.77329C78.327 5.23744 78.6074 4.90662 79.0563 4.90662C79.2694 4.90662 79.449 4.98638 79.6621 5.20318L85.4177 11.0078V4.94088H86.7754V12.5359C86.7754 13.0834 86.4835 13.4028 86.0684 13.4028C85.8329 13.4028 85.6197 13.3002 85.4177 13.0948L79.6846 7.23309Z" fill="#8A94A6"/>
<path d="M27.6761 18.2579H28.1997C28.3256 18.2579 28.4261 18.2266 28.5008 18.1638C28.5753 18.1011 28.6131 18.0126 28.6131 17.8977V17.8619C28.6131 17.7471 28.5762 17.6584 28.5027 17.5957C28.4293 17.5331 28.3282 17.5016 28.1997 17.5016H27.6761V18.2579ZM27.6761 17.0654H28.1957C28.3164 17.0654 28.4141 17.035 28.4889 16.9734C28.5638 16.9121 28.601 16.8268 28.601 16.7175V16.6775C28.601 16.568 28.5638 16.4829 28.4889 16.4213C28.4141 16.36 28.3164 16.3294 28.1957 16.3294H27.6761V17.0654ZM26.8336 18.6941V18.2698H27.2035V16.3174H26.8336V15.8932H28.2427C28.4082 15.8932 28.5532 15.9219 28.678 15.9792C28.8024 16.0366 28.8995 16.1179 28.9691 16.2233C29.0387 16.3287 29.0734 16.4547 29.0734 16.6014V16.6375C29.0734 16.7654 29.0501 16.8709 29.0028 16.9535C28.9556 17.0362 28.8991 17.1002 28.8334 17.1455C28.7677 17.1909 28.7049 17.2229 28.6445 17.2417V17.3097C28.7049 17.3257 28.7696 17.3556 28.8392 17.3997C28.9088 17.4435 28.9677 17.5077 29.0164 17.5916C29.0649 17.6757 29.0893 17.7843 29.0893 17.9177V17.9577C29.0893 18.11 29.0532 18.2411 28.981 18.3519C28.9088 18.4626 28.8106 18.5474 28.6858 18.606C28.561 18.6647 28.4174 18.6941 28.2548 18.6941H26.8336Z" fill="#8A94A6"/>
<path d="M30.5087 18.6941V15.8932H30.9846V18.2579H32.2759V18.6941H30.5087Z" fill="#8A94A6"/>
<path d="M34.5922 18.3079C34.7969 18.3079 34.9563 18.2474 35.0705 18.1259C35.1845 18.0044 35.2416 17.8399 35.2416 17.6317V16.9355C35.2416 16.7275 35.1845 16.5628 35.0705 16.4413C34.9563 16.32 34.7969 16.2593 34.5922 16.2593C34.3899 16.2593 34.2321 16.32 34.1179 16.4413C34.0037 16.5628 33.9467 16.7275 33.9467 16.9355V17.6317C33.9467 17.8399 34.0037 18.0044 34.1179 18.1259C34.2321 18.2474 34.3899 18.3079 34.5922 18.3079ZM34.5922 18.74C34.251 18.74 33.9787 18.6432 33.7754 18.4498C33.572 18.2567 33.4702 17.9785 33.4702 17.6156V16.9516C33.4702 16.5889 33.572 16.3107 33.7754 16.1173C33.9787 15.924 34.251 15.8273 34.5922 15.8273C34.936 15.8273 35.2087 15.924 35.4109 16.1173C35.6128 16.3107 35.7139 16.5889 35.7139 16.9516V17.6156C35.7139 17.9785 35.6128 18.2567 35.4109 18.4498C35.2087 18.6432 34.936 18.74 34.5922 18.74Z" fill="#8A94A6"/>
<path d="M38.2258 18.7401C37.89 18.7401 37.6222 18.6434 37.4229 18.45C37.2236 18.2565 37.1237 17.9786 37.1237 17.6156V16.9516C37.1237 16.5887 37.2236 16.3109 37.4229 16.1174C37.6222 15.9238 37.89 15.8273 38.2258 15.8273C38.5619 15.8273 38.8209 15.9207 39.0033 16.1072C39.1857 16.2939 39.277 16.5502 39.277 16.8754V16.8997H38.8123V16.8635C38.8123 16.6875 38.7644 16.5427 38.6688 16.4294C38.5728 16.3161 38.4254 16.2593 38.2258 16.2593C38.0316 16.2593 37.8788 16.32 37.7673 16.4413C37.6558 16.5628 37.5999 16.7303 37.5999 16.9436V17.6238C37.5999 17.8345 37.6558 18.0013 37.7673 18.124C37.8788 18.2467 38.0316 18.3081 38.2258 18.3081C38.4254 18.3081 38.5728 18.2513 38.6688 18.1378C38.7644 18.0245 38.8123 17.8799 38.8123 17.7039V17.6357H39.277V17.6918C39.277 18.0172 39.1857 18.2733 39.0033 18.46C38.8209 18.6469 38.5619 18.7401 38.2258 18.7401Z" fill="#8A94A6"/>
<path d="M40.6906 18.6941V15.8932H41.1668V17.0336H41.2337L42.1945 15.8932H42.8044L41.604 17.2737L42.8439 18.6941H42.2178L41.2337 17.5298H41.1668V18.6941H40.6906Z" fill="#8A94A6"/>
<path d="M45.0354 18.7401C44.6994 18.7401 44.4316 18.6434 44.2325 18.45C44.033 18.2565 43.9332 17.9786 43.9332 17.6156V16.9516C43.9332 16.5887 44.033 16.3109 44.2325 16.1174C44.4316 15.9238 44.6994 15.8273 45.0354 15.8273C45.3714 15.8273 45.6305 15.9207 45.8127 16.1072C45.9953 16.2939 46.0864 16.5502 46.0864 16.8754V16.8997H45.6218V16.8635C45.6218 16.6875 45.574 16.5427 45.4783 16.4294C45.3823 16.3161 45.2349 16.2593 45.0354 16.2593C44.8412 16.2593 44.6883 16.32 44.5767 16.4413C44.4653 16.5628 44.4095 16.7303 44.4095 16.9436V17.6238C44.4095 17.8345 44.4653 18.0013 44.5767 18.124C44.6883 18.2467 44.8412 18.3081 45.0354 18.3081C45.2349 18.3081 45.3823 18.2513 45.4783 18.1378C45.574 18.0245 45.6218 17.8799 45.6218 17.7039V17.6357H46.0864V17.6918C46.0864 18.0172 45.9953 18.2733 45.8127 18.46C45.6305 18.6469 45.3714 18.7401 45.0354 18.7401Z" fill="#8A94A6"/>
<path d="M47.5217 18.6941V15.8932H47.9978V17.0698H49.0842V15.8932H49.5605V18.6941H49.0842V17.5097H47.9978V18.6941H47.5217Z" fill="#8A94A6"/>
<path d="M51.6578 17.6137H52.4646L52.0948 16.1934H52.0277L51.6578 17.6137ZM50.8942 18.6941L51.6498 15.8932H52.4726L53.2284 18.6941H52.7402L52.5751 18.0537H51.5477L51.3822 18.6941H50.8942Z" fill="#8A94A6"/>
<path d="M55.0453 15.8932H54.5692V18.6941H55.0453V15.8932Z" fill="#8A94A6"/>
<path d="M56.5796 18.6941V15.8932H57.4848L58.1342 18.37H58.1976V15.8932H58.6658V18.6941H57.7642L57.1149 16.2174H57.0479V18.6941H56.5796Z" fill="#8A94A6"/>
<path d="M63.1235 18.7401C62.9132 18.7401 62.7279 18.7021 62.5663 18.6261C62.4049 18.55 62.2783 18.4399 62.1864 18.296C62.0946 18.1518 62.0488 17.9759 62.0488 17.7679V17.6637H62.5173V17.7679C62.5173 17.9518 62.5724 18.0892 62.6826 18.1799C62.7927 18.2705 62.9398 18.316 63.1235 18.316C63.3097 18.316 63.4503 18.2775 63.5448 18.1999C63.6391 18.1226 63.6862 18.0226 63.6862 17.8999C63.6862 17.8172 63.6639 17.7497 63.6193 17.6977C63.5747 17.6459 63.5097 17.6037 63.4246 17.5717C63.3391 17.5397 63.2363 17.5091 63.1155 17.4796L62.9973 17.4558C62.8164 17.413 62.6598 17.3591 62.5272 17.2936C62.3946 17.2282 62.2928 17.1435 62.2219 17.0395C62.1508 16.9357 62.1157 16.7995 62.1157 16.6315C62.1157 16.4635 62.1551 16.3194 62.2335 16.1994C62.3127 16.0792 62.424 15.9873 62.5685 15.9231C62.7127 15.8593 62.8819 15.8273 63.0763 15.8273C63.2705 15.8273 63.4435 15.8607 63.596 15.9273C63.7478 15.9939 63.868 16.0941 63.956 16.2273C64.044 16.3607 64.0878 16.5275 64.0878 16.7275V16.8595H63.6193V16.7275C63.6193 16.6128 63.597 16.5208 63.5522 16.4514C63.5078 16.3822 63.4448 16.3315 63.3636 16.2993C63.2821 16.2673 63.1864 16.2514 63.0763 16.2514C62.9132 16.2514 62.79 16.2834 62.7061 16.3474C62.622 16.4114 62.5803 16.5021 62.5803 16.6195C62.5803 16.6941 62.599 16.7574 62.6373 16.8095C62.6753 16.8616 62.7316 16.9043 62.8067 16.9374C62.8812 16.9711 62.9752 16.9995 63.0879 17.0236L63.2062 17.0518C63.395 17.0943 63.5604 17.1483 63.7019 17.2135C63.8435 17.2789 63.9545 17.3651 64.0347 17.4719C64.1147 17.5784 64.1547 17.7172 64.1547 17.8878C64.1547 18.0558 64.1119 18.2039 64.027 18.332C63.9414 18.46 63.822 18.56 63.6685 18.632C63.515 18.7041 63.3333 18.7401 63.1235 18.7401Z" fill="#8A94A6"/>
<path d="M65.5509 18.6941V15.8932H67.3066V16.3294H66.0274V17.0656H67.1965V17.5016H66.0274V18.2579H67.3262V18.6941H65.5509Z" fill="#8A94A6"/>
<path d="M69.7658 18.7401C69.4302 18.7401 69.1622 18.6434 68.9631 18.45C68.7636 18.2565 68.6638 17.9786 68.6638 17.6156V16.9516C68.6638 16.5887 68.7636 16.3109 68.9631 16.1174C69.1622 15.9238 69.4302 15.8273 69.7658 15.8273C70.102 15.8273 70.3611 15.9207 70.5432 16.1072C70.7259 16.2939 70.817 16.5502 70.817 16.8754V16.8997H70.3524V16.8635C70.3524 16.6875 70.3046 16.5427 70.2089 16.4294C70.1129 16.3161 69.9655 16.2593 69.7658 16.2593C69.5716 16.2593 69.4189 16.32 69.3074 16.4413C69.1959 16.5628 69.1401 16.7303 69.1401 16.9436V17.6238C69.1401 17.8345 69.1959 18.0013 69.3074 18.124C69.4189 18.2467 69.5716 18.3081 69.7658 18.3081C69.9655 18.3081 70.1129 18.2513 70.2089 18.1378C70.3046 18.0245 70.3524 17.8799 70.3524 17.7039V17.6357H70.817V17.6918C70.817 18.0172 70.7259 18.2733 70.5432 18.46C70.3611 18.6469 70.102 18.7401 69.7658 18.7401Z" fill="#8A94A6"/>
<path d="M73.2932 18.75C73.073 18.75 72.8835 18.7093 72.7247 18.628C72.5657 18.5465 72.4438 18.4285 72.3586 18.2738C72.2733 18.1193 72.2307 17.9352 72.2307 17.7219V15.8932H72.7029V17.7338C72.7029 17.9203 72.7541 18.0645 72.8565 18.1659C72.9589 18.2673 73.1045 18.3179 73.2932 18.3179C73.4849 18.3179 73.6313 18.2673 73.7323 18.1659C73.8332 18.0645 73.8839 17.9203 73.8839 17.7338V15.8932H74.3563V17.7219C74.3563 17.9352 74.3142 18.1193 74.2303 18.2738C74.1462 18.4285 74.0242 18.5465 73.8642 18.628C73.7042 18.7093 73.5139 18.75 73.2932 18.75Z" fill="#8A94A6"/>
<path d="M76.3385 17.1777H76.9922C77.1287 17.1777 77.2356 17.1409 77.3129 17.0677C77.3903 16.9943 77.4288 16.8962 77.4288 16.7734V16.7375C77.4288 16.6121 77.3908 16.5128 77.3147 16.4394C77.2388 16.3661 77.1312 16.3294 76.9922 16.3294H76.3385V17.1777ZM75.8625 18.6941V15.8932H77.0393C77.2124 15.8932 77.3634 15.9238 77.4919 15.9852C77.6204 16.0467 77.721 16.1327 77.793 16.2434C77.8654 16.354 77.9013 16.4867 77.9013 16.6413V16.6855C77.9013 16.8587 77.8606 16.9974 77.7794 17.1016C77.6981 17.2056 77.5997 17.2817 77.4843 17.3296V17.3937C77.5862 17.399 77.6671 17.435 77.7262 17.5016C77.7852 17.5682 77.8147 17.6577 77.8147 17.7698V18.6941H77.3425V17.8378C77.3425 17.771 77.3248 17.7172 77.2892 17.6757C77.2538 17.6343 77.1966 17.6137 77.1181 17.6137H76.3385V18.6941H75.8625Z" fill="#8A94A6"/>
<path d="M79.8193 15.8932H79.343V18.6941H79.8193V15.8932Z" fill="#8A94A6"/>
<path d="M81.9815 18.6941V16.3294H81.1588V15.8932H83.2764V16.3294H82.454V18.6941H81.9815Z" fill="#8A94A6"/>
<path d="M85.3504 18.6941V17.706L84.4016 15.8932H84.9329L85.5549 17.1296H85.6218L86.2439 15.8932H86.7711L85.8228 17.706V18.6941H85.3504Z" fill="#8A94A6"/>
<path d="M16.6881 5.78596V10.8191C16.6881 12.1955 16.2362 13.6061 15.4169 14.7899C14.6823 15.8522 13.6858 16.6991 12.4455 17.3162C12.9913 17.5489 13.729 17.8341 14.0204 17.9459C15.0081 17.3026 15.8337 16.5048 16.4896 15.5574C17.4634 14.1504 18 12.4675 18 10.8191V5.99789C17.6261 5.93098 17.1828 5.85764 16.6881 5.78596ZM11.8098 17.6043C10.2715 16.9729 9.05998 16.0278 8.20373 14.7899C7.38367 13.6061 6.93234 12.1955 6.93234 10.8191V7.74915C6.50841 7.81355 5.62048 7.98247 5.62048 7.98247V10.8191C5.62048 12.4675 6.15704 14.1504 7.13 15.5574C8.22683 17.142 9.79971 18.3089 11.8098 19.0296H11.8106C12.4061 18.8162 12.9631 18.5636 13.4804 18.2717C13.4491 18.2605 12.4504 17.8804 11.8098 17.6043ZM11.8098 5.4043C9.38866 5.4043 7.01942 5.74877 5.62048 5.99789V7.36686C5.62048 7.36686 6.50841 7.19794 6.93234 7.13333C8.30839 6.92598 10.0462 6.73774 11.8098 6.73774C13.3242 6.73774 14.8192 6.87632 16.0825 7.04752V5.70286C14.8301 5.53997 13.3302 5.4043 11.8098 5.4043Z" fill="#8A94A6"/>
</g>
</svg>
