<svg width="12" height="10" viewBox="0 0 12 10" fill="none" xmlns="http://www.w3.org/2000/svg">
<path d="M9.79377 1.50403C10.2155 1.50403 10.3265 1.82303 10.2018 2.57203C10.059 3.42853 9.64777 6.26428 9.31977 8.02953C9.19427 8.70503 8.96802 8.99628 8.63877 8.99628C8.45777 8.99628 8.24577 8.90828 8.00227 8.74753C7.67227 8.52953 6.00627 7.42778 5.64452 7.16903C5.31452 6.93328 5.05388 6.30854 5.62488 5.75004C5.82813 5.55104 6.96527 4.62028 8.00277 3.63053C8.11352 3.52478 8.02077 3.36353 7.89777 3.36353C7.86977 3.36353 7.84002 3.37203 7.81102 3.39128C6.41252 4.31878 4.47327 5.60603 4.22652 5.77378C3.97977 5.94128 3.73927 6.04878 3.41877 6.04878C3.25502 6.04878 3.07027 6.02078 2.85302 5.95828C2.36727 5.81878 1.89302 5.65253 1.70827 5.58903C1.24757 5.43068 1.16577 5.02878 1.85652 4.72478C4.62602 3.50653 8.20977 2.02103 8.70452 1.81553C9.18652 1.61528 9.54452 1.50403 9.79377 1.50403ZM9.79377 0.754028C9.45177 0.754028 9.04002 0.864278 8.41727 1.12253L8.34252 1.15353C5.68377 2.25753 3.27302 3.28203 1.55452 4.03803C1.28602 4.15628 0.469272 4.51553 0.501022 5.26703C0.514522 5.59128 0.693022 6.03328 1.46502 6.29803L1.52202 6.31753C1.73752 6.39178 2.18627 6.54653 2.64627 6.67878C2.92627 6.75928 3.17927 6.79828 3.41902 6.79828C3.77539 6.79828 4.06296 6.71113 4.2965 6.59924C4.34711 6.57499 4.40799 6.61208 4.41227 6.66803V6.66803C4.45777 7.24603 4.90477 7.56303 5.17177 7.75253L5.20902 7.77903C5.60327 8.06103 7.38752 9.23978 7.58952 9.37303C7.96977 9.62403 8.31302 9.74578 8.63927 9.74578C9.15227 9.74578 9.81502 9.47178 10.0575 8.16628C10.2878 6.92803 10.5538 5.19828 10.748 3.93528C10.8308 3.39628 10.8988 2.95428 10.942 2.69503C11.0293 2.17153 11.0693 1.57853 10.705 1.14878C10.552 0.968778 10.27 0.754028 9.79377 0.754028Z" fill="white"/>
</svg>
