<svg width="12" height="10" viewBox="0 0 12 10" fill="none" xmlns="http://www.w3.org/2000/svg">
<path fill-rule="evenodd" clip-rule="evenodd" d="M1.59038 5.9999C0.763515 6.00225 0.229757 6.9442 0.739155 7.65785C1.46867 8.6798 2.79154 9.5 5.00005 9.5C8.4226 9.5 11.1699 6.71085 10.7853 3.41555L11.3488 2.28865C11.7395 1.50714 11.0605 0.61811 10.2037 0.78947L9.4593 0.938345C9.26195 0.834215 9.0577 0.755635 8.88315 0.698705C8.54295 0.58776 8.1312 0.5 7.75005 0.5C7.0654 0.5 6.4745 0.675655 6.0049 1.02797C5.54065 1.37632 5.27915 1.83412 5.13565 2.25452C5.0695 2.4483 5.02545 2.64267 4.99719 2.82922C4.73155 2.74562 4.4607 2.63313 4.19553 2.49577C3.59393 2.18416 3.10745 1.78911 2.83303 1.44275C2.37261 0.86165 1.39689 0.904735 1.0545 1.6601C0.57193 2.72474 0.704305 3.98673 1.13808 5.00645C1.28347 5.3482 1.47259 5.68605 1.70365 5.99915C1.66409 5.9996 1.62625 5.9998 1.59038 5.9999ZM5 8.5C3.06833 8.5 2.0695 7.80035 1.55302 7.07685C1.52982 7.04435 1.55322 7 1.59315 6.9999C2.11857 6.9984 3.19707 6.97355 3.90837 6.55725C3.94516 6.5357 3.93706 6.48145 3.89666 6.4679C2.23858 5.9104 1.29606 3.54929 1.96525 2.07295C1.9806 2.0391 2.0261 2.03464 2.04918 2.06377C2.81362 3.02859 4.48502 3.9736 5.9392 3.99945C5.97075 4 5.9946 3.97135 5.9898 3.94017C5.9312 3.56027 5.70745 1.5 7.75 1.5C8.23775 1.5 8.96345 1.73792 9.23075 1.98165C9.2431 1.99292 9.25985 1.99803 9.27625 1.99475L10.3997 1.77005C10.4405 1.76189 10.4729 1.80422 10.4543 1.84144L9.75745 3.2351C9.7526 3.24477 9.7511 3.25588 9.75295 3.26653C10.241 6.01 7.994 8.5 5 8.5Z" fill="white"/>
</svg>
