<svg width="12" height="12" viewBox="0 0 12 12" fill="none" xmlns="http://www.w3.org/2000/svg">
<path fill-rule="evenodd" clip-rule="evenodd" d="M6.00012 2.75C5.02401 2.75 3.3742 2.8305 2.65198 2.92589C2.00198 3.01173 1.51185 3.50186 1.42601 4.15185C1.33062 4.87408 1.25012 5.02388 1.25012 6C1.25012 6.97612 1.33062 7.12592 1.42601 7.84815C1.51185 8.49814 2.00198 8.98827 2.65197 9.07411C3.3742 9.1695 5.02401 9.25 6.00012 9.25C6.97624 9.25 8.62604 9.1695 9.34827 9.07411C9.99826 8.98827 10.4884 8.49814 10.5742 7.84815C10.6696 7.12592 10.7501 6.97612 10.7501 6C10.7501 5.02388 10.6696 4.87408 10.5742 4.15185C10.4884 3.50186 9.99826 3.01173 9.34827 2.92589C8.62604 2.8305 6.97624 2.75 6.00012 2.75ZM2.52104 1.9345C1.42264 2.07956 0.579684 2.92252 0.434618 4.02092C0.334889 4.77604 0.250122 4.97064 0.250122 6C0.250122 7.02936 0.334889 7.22396 0.434618 7.97908C0.579684 9.07748 1.42264 9.92044 2.52104 10.0655C3.27616 10.1652 4.97076 10.25 6.00012 10.25C7.02948 10.25 8.72408 10.1652 9.4792 10.0655C10.5776 9.92044 11.4206 9.07748 11.5656 7.97908C11.6654 7.22396 11.7501 7.02936 11.7501 6C11.7501 4.97064 11.6654 4.77604 11.5656 4.02092C11.4206 2.92252 10.5776 2.07956 9.4792 1.9345C8.72408 1.83477 7.02948 1.75 6.00012 1.75C4.97076 1.75 3.27616 1.83477 2.52104 1.9345Z" fill="white"/>
<path d="M5.77735 4.51829L7.376 5.58405C7.67285 5.78195 7.67285 6.21815 7.376 6.4161L5.77735 7.4818C5.4451 7.70335 5 7.46515 5 7.0658V4.93431C5 4.53497 5.4451 4.29677 5.77735 4.51829Z" fill="white"/>
</svg>
